# xmcd CD database file
#
# Track frame offsets:
#	150
#	22196
#	39245
#	55648
#	76539
#	95656
#	113730
#	133232
#	148225
#	167450
#	185220
#	199861
#	218622
#	231400
#	246145
#	260574
#	282554
#
# Disc length: 3928 seconds
#
# Revision: 4
# Processed by: cddbd v1.5.2PL0 Copyright (c) Steve Scherf et al.
# Submitted via: CDex 1.70beta2
#
DISCID=fa0f5611
DTITLE=Various Artist - BLIND PIG RECORDS 25TH ANNIVERSARY COLLECTION ( CD-1 )
DYEAR=2002
DGENRE=Blues
TTITLE0=GET YOU NEXT TO ME - ARTHUR ABRAMS and BB KING
TTITLE1=BENDIN' LIKE A WILLOW TREE/ DEBORAH COLEMAN
TTITLE2=DADDY PLAYED THE GUITAR AND MOMMA WAS A DISCO QUEEN - POPA CHUBBY
TTITLE3=STRONG MAN HOLLER - BIG BILL MORGANFIELD and TAJ MAHAL
TTITLE4=SINNER STREET - JIMMY THACKERY and THE DRIVERS
TTITLE5=CAN'T KEEP A GOOD MAN DOWN - TOMMY CASTRO
TTITLE6=I WONDER WHY - DEBBIE DAVIES and ALBERT COLLINS
TTITLE7=LAST CHANCE - GEORGE "HARMONICA" SMITH
TTITLE8=WORK WITH ME ANNIE - SNOOKY PRYOR
TTITLE9=THAT SAME THING - GOSPEL HUMMINGBIRDS
TTITLE10=WAKE ME UP EARLY - MAGIC SLIM and THE TEARDROPS
TTITLE11=WHAT A GOOD FEELING - E.C. SCOTT
TTITLE12=MY BABE - JAMES COTTON
TTITLE13=PLEATED PANTS - MEMPHIS ROCKABILLY BAND
TTITLE14=ALL YOU LEFT BEHIND - BOB MARGOLIN
TTITLE15=HONEY BEE - MUDDY WATERS
TTITLE16=HURON RIVER DRIVE - THE VIPERS
EXTD=YEAR: 2002
EXTT0=
EXTT1=
EXTT2=
EXTT3=
EXTT4=
EXTT5=
EXTT6=
EXTT7=
EXTT8=
EXTT9=
EXTT10=
EXTT11=
EXTT12=
EXTT13=
EXTT14=
EXTT15=
EXTT16=
PLAYORDER=
